Simulation
nRows=24
nColumns=15
endheader
time  TH_x TH_y TH_z SC_y  SC_z  SC_x  AC_y  AC_z  AC_x  GH_y  GH_z  GH_yy  EL_x  PS_y
5.745  0.000000  0.000000  0.000000  -43.69386480998647  11.86234631062286  8.123666314910263  52.732638858890176  17.016661495716267  15.677953188738961  18.412618243744916  59.16704314885929  -33.098012186307045  18.57993194327721  120.000000
5.80245  0.000000  0.000000  0.000000  -42.57127824783116  11.092850829857214  6.111555337664462  52.266217707040376  16.7324811635718  14.944546091662072  18.844461629974365  57.55570684710131  -33.55651384208285  18.87568899694586  120.000000
5.8599  0.000000  0.000000  0.000000  -41.29926656880544  10.161740084020716  3.511445345145611  51.612110106946105  16.47883267724287  14.303099714531976  19.38620102504569  55.481824316222195  -33.89154313724811  19.272607553137703  120.000000
5.91735  0.000000  0.000000  0.000000  -39.959111038703924  9.081616053566448  0.4595300090848182  50.73596441045537  16.252550505837227  13.788521132838424  20.061136124548316  52.987404031212606  -34.08312828235381  19.680826583362563  120.000000
5.9748  0.000000  0.000000  0.000000  -38.624034336087455  7.87900606262783  -2.8885931305389585  49.63027604792372  16.065885494513864  13.424332051317272  20.888229068041113  50.13047467358862  -34.1169602877005  19.990799355803663  120.000000
6.03225  0.000000  0.000000  0.000000  -37.356825920445125  6.594028233117443  -6.370169954259181  48.323184245780205  15.947416140669933  13.21820968283008  21.887566163940892  46.97623095019753  -34.00192780647499  20.10822364322064  120.000000
6.089700000000001  0.000000  0.000000  0.000000  -36.20723889536007  5.277622503851291  -9.825451727651595  46.878215348972745  15.940781070606134  13.163210580239824  23.091933140213495  43.59026147224905  -33.786558291825315  19.981481634005178  120.000000
6.14715  0.000000  0.000000  0.000000  -35.21636858724674  3.987605820274318  -13.105720883508294  45.38197040487946  16.0978284488959  13.24255526976364  24.556089212668873  40.03729889781013  -33.56785773072305  19.60943915526854  120.000000
6.2046  0.000000  0.000000  0.000000  -34.42003235628962  2.7882858317952732  -16.08157488589607  43.92634513631732  16.463242325208444  13.436054171343406  26.368067559617106  36.38356158928012  -33.49289173859021  19.02853232975238  120.000000
6.26205  0.000000  0.000000  0.000000  -33.842543786816606  1.7459658196748136  -18.651949284341256  42.59130212407086  17.055161005171456  13.726241039333042  28.66126252330893  32.70383453921607  -33.75633416116864  18.297096516704926  120.000000
6.3195  0.000000  0.000000  0.000000  -33.48960193199932  0.9193480997638658  -20.75421413501184  41.436833282588545  17.852833938413653  14.09560463036619  31.617388285729  29.08795005164811  -34.588307524085  17.4888931056674  120.000000
6.37695  0.000000  0.000000  0.000000  -33.34456895782398  0.3462596193571234  -22.37003591351334  40.50428790980832  18.797413042937958  14.520770294386201  35.45588615582111  25.642510877867508  -36.234057301825416  16.689705708284535  120.000000
6.4344  0.000000  0.000000  0.000000  -33.378105902366244  0.02367473854426616  -23.515496747877837  39.80599456838518  19.806039333746114  14.980089518469663  40.389385812877066  22.48643758279548  -38.91469057961527  15.987790208284366  120.000000
6.49185  0.000000  0.000000  0.000000  -33.55395361437284  -0.082841697497981  -24.232620191409648  39.32170020005238  20.795993670427826  15.453999057248831  46.532808949247915  19.735524397182733  -42.752492756161566  15.459784820097347  120.000000
6.549300000000001  0.000000  0.000000  0.000000  -33.82816570595796  -0.017499787588016902  -24.591976275331874  39.01748520869436  21.707024007471833  15.91229288552238  53.801995527954226  17.47926628840987  -47.68865640474115  15.154800009669271  120.000000
6.60675  0.000000  0.000000  0.000000  -34.1462366003455  0.16680068170370518  -24.689602271774696  38.85083376328215  22.505404057927976  16.322992998570747  61.852908899621454  15.750966032959221  -53.42782914651477  15.085009170913516  120.000000
6.6642  0.000000  0.000000  0.000000  -34.4651093421272  0.41483570392175434  -24.611493195127746  38.77489376894029  23.16999753034725  16.663178195086402  70.14664527282822  14.515014616199219  -59.496113534471135  15.231976235537738  120.000000
6.72165  0.000000  0.000000  0.000000  -34.76627456508726  0.6795834046302458  -24.40326768726872  38.75603634149898  23.685906004013198  16.906616013176446  78.12247861016576  13.68161061457819  -65.39861843623747  15.557194199172999  120.000000
6.7791  0.000000  0.000000  0.000000  -35.04347889401772  0.9293321308442952  -24.090977975466757  38.77230161111965  24.04632645472674  17.031973637016907  85.36386848627252  13.138876058367178  -70.7684736393364  16.004480142259744  120.000000
6.83655  0.000000  0.000000  0.000000  -35.290645378788604  1.1503156801255296  -23.700573684491506  38.8096944606301  24.253509785584228  17.033525628627487  91.6721033704013  12.782125673901314  -75.43122487118549  16.4993157545046  120.000000
6.894  0.000000  0.000000  0.000000  -35.49548052862922  1.3396048720619194  -23.25396900740309  38.86374874768607  24.318313457030794  16.91612364140648  97.04238207009745  12.526795424297509  -79.38223729894503  16.954543467314664  120.000000
6.95145  0.000000  0.000000  0.000000  -35.64353308290435  1.499642621038104  -22.76677852966055  38.93734850265681  24.25783809987693  16.69227535052887  101.58606406644847  12.314826723411882  -82.71967391377927  17.28927001209741  120.000000
7.008900000000001  0.000000  0.000000  0.000000  -35.727399205738216  1.634064283462337  -22.248242015704182  39.03537127062134  24.092512749092823  16.37947043194267  105.44924420446122  12.113505653780669  -85.57568861561737  17.45661784273358  120.000000
7.06635  0.000000  0.000000  0.000000  -35.75484398564067  1.7448138210783113  -21.702026857129034  39.157255501177936  23.842826950055098  15.998901526798592  108.76080583797975  11.908105953098628  -88.07321009598165  17.465159882990452  120.000000
